<mxfile host="app.diagrams.net" modified="2023-07-01T14:56:47.542Z" agent="Mozilla/5.0 (Windows NT 10.0; Win64; x64) AppleWebKit/537.36 (KHTML, like Gecko) Chrome/113.0.0.0 Safari/537.36" etag="gCJHj6Uz6hUHv7vlYerF" version="21.5.2" type="github">
  <diagram name="第 1 页" id="z8psEpzphFv1q0jiK2pO">
    <mxGraphModel dx="1877" dy="581" grid="1" gridSize="10" guides="1" tooltips="1" connect="1" arrows="1" fold="1" page="1" pageScale="1" pageWidth="827" pageHeight="1169" math="0" shadow="0">
      <root>
        <mxCell id="0" />
        <mxCell id="1" parent="0" />
        <mxCell id="x8gO3h4IMWBvskIXVoth-2" value="&lt;pre style=&quot;background-color:#ffffff;color:#080808;font-family:&#39;JetBrains Mono&#39;,monospace;font-size:9.8pt;&quot;&gt;&lt;span style=&quot;color:#0033b3;&quot;&gt;1、&lt;/span&gt;&lt;/pre&gt;&lt;pre style=&quot;background-color:#ffffff;color:#080808;font-family:&#39;JetBrains Mono&#39;,monospace;font-size:9.8pt;&quot;&gt;&lt;span style=&quot;color:#0033b3;&quot;&gt;final void &lt;/span&gt;&lt;span style=&quot;color:#00627a;&quot;&gt;lock&lt;/span&gt;() {&lt;br&gt;    &lt;span style=&quot;color:#0033b3;&quot;&gt;if &lt;/span&gt;(compareAndSetState(&lt;span style=&quot;color:#1750eb;&quot;&gt;0&lt;/span&gt;, &lt;span style=&quot;color:#1750eb;&quot;&gt;1&lt;/span&gt;))&lt;br&gt;        setExclusiveOwnerThread(&lt;span style=&quot;color:#000000;&quot;&gt;Thread&lt;/span&gt;.&lt;span style=&quot;font-style:italic;&quot;&gt;currentThread&lt;/span&gt;());&lt;br&gt;    &lt;span style=&quot;color:#0033b3;&quot;&gt;else&lt;br&gt;&lt;/span&gt;&lt;span style=&quot;color:#0033b3;&quot;&gt;        &lt;/span&gt;acquire(&lt;span style=&quot;color:#1750eb;&quot;&gt;1&lt;/span&gt;);&lt;br&gt;}&lt;/pre&gt;" style="text;whiteSpace=wrap;html=1;" vertex="1" parent="1">
          <mxGeometry x="20" y="30" width="390" height="140" as="geometry" />
        </mxCell>
        <mxCell id="x8gO3h4IMWBvskIXVoth-5" value="" style="edgeStyle=orthogonalEdgeStyle;rounded=0;orthogonalLoop=1;jettySize=auto;html=1;" edge="1" parent="1" source="x8gO3h4IMWBvskIXVoth-3" target="x8gO3h4IMWBvskIXVoth-4">
          <mxGeometry relative="1" as="geometry" />
        </mxCell>
        <mxCell id="x8gO3h4IMWBvskIXVoth-3" value="lock()" style="strokeWidth=2;html=1;shape=mxgraph.flowchart.start_1;whiteSpace=wrap;" vertex="1" parent="1">
          <mxGeometry x="-515" y="350" width="100" height="60" as="geometry" />
        </mxCell>
        <mxCell id="x8gO3h4IMWBvskIXVoth-7" value="" style="edgeStyle=orthogonalEdgeStyle;rounded=0;orthogonalLoop=1;jettySize=auto;html=1;" edge="1" parent="1" source="x8gO3h4IMWBvskIXVoth-4" target="x8gO3h4IMWBvskIXVoth-6">
          <mxGeometry relative="1" as="geometry" />
        </mxCell>
        <mxCell id="x8gO3h4IMWBvskIXVoth-4" value="cas尝试修改state，修改成功则获取锁、修改失败则获取锁失败。" style="whiteSpace=wrap;html=1;strokeWidth=2;" vertex="1" parent="1">
          <mxGeometry x="-530" y="450" width="130" height="60" as="geometry" />
        </mxCell>
        <mxCell id="x8gO3h4IMWBvskIXVoth-9" value="" style="edgeStyle=orthogonalEdgeStyle;rounded=0;orthogonalLoop=1;jettySize=auto;html=1;" edge="1" parent="1" source="x8gO3h4IMWBvskIXVoth-6" target="x8gO3h4IMWBvskIXVoth-8">
          <mxGeometry relative="1" as="geometry" />
        </mxCell>
        <mxCell id="x8gO3h4IMWBvskIXVoth-12" value="是" style="edgeLabel;html=1;align=center;verticalAlign=middle;resizable=0;points=[];" vertex="1" connectable="0" parent="x8gO3h4IMWBvskIXVoth-9">
          <mxGeometry x="0.2" y="2" relative="1" as="geometry">
            <mxPoint as="offset" />
          </mxGeometry>
        </mxCell>
        <mxCell id="x8gO3h4IMWBvskIXVoth-14" value="" style="edgeStyle=orthogonalEdgeStyle;rounded=0;orthogonalLoop=1;jettySize=auto;html=1;" edge="1" parent="1" source="x8gO3h4IMWBvskIXVoth-6" target="x8gO3h4IMWBvskIXVoth-13">
          <mxGeometry relative="1" as="geometry" />
        </mxCell>
        <mxCell id="x8gO3h4IMWBvskIXVoth-27" value="否" style="edgeLabel;html=1;align=center;verticalAlign=middle;resizable=0;points=[];" vertex="1" connectable="0" parent="x8gO3h4IMWBvskIXVoth-14">
          <mxGeometry x="-0.2133" relative="1" as="geometry">
            <mxPoint as="offset" />
          </mxGeometry>
        </mxCell>
        <mxCell id="x8gO3h4IMWBvskIXVoth-6" value="cas修改成功？" style="rhombus;whiteSpace=wrap;html=1;strokeWidth=2;" vertex="1" parent="1">
          <mxGeometry x="-505" y="545" width="80" height="80" as="geometry" />
        </mxCell>
        <mxCell id="x8gO3h4IMWBvskIXVoth-11" style="edgeStyle=orthogonalEdgeStyle;rounded=0;orthogonalLoop=1;jettySize=auto;html=1;entryX=0.5;entryY=0;entryDx=0;entryDy=0;entryPerimeter=0;" edge="1" parent="1" source="x8gO3h4IMWBvskIXVoth-8" target="x8gO3h4IMWBvskIXVoth-10">
          <mxGeometry relative="1" as="geometry" />
        </mxCell>
        <mxCell id="x8gO3h4IMWBvskIXVoth-8" value="当前线程设置为锁的拥有者" style="whiteSpace=wrap;html=1;strokeWidth=2;" vertex="1" parent="1">
          <mxGeometry x="-525" y="660" width="120" height="60" as="geometry" />
        </mxCell>
        <mxCell id="x8gO3h4IMWBvskIXVoth-10" value="结束" style="strokeWidth=2;html=1;shape=mxgraph.flowchart.start_1;whiteSpace=wrap;" vertex="1" parent="1">
          <mxGeometry x="-515" y="1280" width="100" height="60" as="geometry" />
        </mxCell>
        <mxCell id="x8gO3h4IMWBvskIXVoth-29" value="" style="edgeStyle=orthogonalEdgeStyle;rounded=0;orthogonalLoop=1;jettySize=auto;html=1;" edge="1" parent="1" source="x8gO3h4IMWBvskIXVoth-13" target="x8gO3h4IMWBvskIXVoth-28">
          <mxGeometry relative="1" as="geometry" />
        </mxCell>
        <mxCell id="x8gO3h4IMWBvskIXVoth-13" value="尝试获取锁" style="whiteSpace=wrap;html=1;strokeWidth=2;" vertex="1" parent="1">
          <mxGeometry x="-365" y="555" width="120" height="60" as="geometry" />
        </mxCell>
        <mxCell id="x8gO3h4IMWBvskIXVoth-21" style="edgeStyle=orthogonalEdgeStyle;rounded=0;orthogonalLoop=1;jettySize=auto;html=1;exitX=0.5;exitY=1;exitDx=0;exitDy=0;" edge="1" parent="1" source="x8gO3h4IMWBvskIXVoth-15" target="x8gO3h4IMWBvskIXVoth-16">
          <mxGeometry relative="1" as="geometry" />
        </mxCell>
        <mxCell id="x8gO3h4IMWBvskIXVoth-15" value="&lt;pre style=&quot;background-color:#ffffff;color:#080808;font-family:&#39;JetBrains Mono&#39;,monospace;font-size:9.8pt;&quot;&gt;&lt;span style=&quot;color:#0033b3;&quot;&gt;public final void &lt;/span&gt;&lt;span style=&quot;color:#00627a;&quot;&gt;acquire&lt;/span&gt;(&lt;span style=&quot;color:#0033b3;&quot;&gt;int &lt;/span&gt;arg) {&lt;br&gt;    &lt;span style=&quot;color:#0033b3;&quot;&gt;if &lt;/span&gt;(!tryAcquire(arg) &amp;amp;&amp;amp; //尝试获取锁&lt;br&gt;        acquireQueued(addWaiter(&lt;span style=&quot;color:#000000;&quot;&gt;Node&lt;/span&gt;.&lt;span style=&quot;color:#871094;font-style:italic;&quot;&gt;EXCLUSIVE&lt;/span&gt;), arg))&lt;br&gt;        &lt;span style=&quot;font-style:italic;&quot;&gt;selfInterrupt&lt;/span&gt;();&lt;br&gt;}&lt;/pre&gt;" style="text;whiteSpace=wrap;html=1;" vertex="1" parent="1">
          <mxGeometry x="585" y="80" width="380" height="130" as="geometry" />
        </mxCell>
        <mxCell id="x8gO3h4IMWBvskIXVoth-22" style="edgeStyle=orthogonalEdgeStyle;rounded=0;orthogonalLoop=1;jettySize=auto;html=1;exitX=0.5;exitY=1;exitDx=0;exitDy=0;entryX=0.437;entryY=0.001;entryDx=0;entryDy=0;entryPerimeter=0;" edge="1" parent="1" source="x8gO3h4IMWBvskIXVoth-16" target="x8gO3h4IMWBvskIXVoth-17">
          <mxGeometry relative="1" as="geometry" />
        </mxCell>
        <mxCell id="x8gO3h4IMWBvskIXVoth-16" value="&lt;pre style=&quot;background-color:#ffffff;color:#080808;font-family:&#39;JetBrains Mono&#39;,monospace;font-size:9.8pt;&quot;&gt;&lt;span style=&quot;color:#0033b3;&quot;&gt;final boolean &lt;/span&gt;&lt;span style=&quot;color:#00627a;&quot;&gt;nonfairTryAcquire&lt;/span&gt;(&lt;span style=&quot;color:#0033b3;&quot;&gt;int &lt;/span&gt;acquires) {&lt;br&gt;    &lt;span style=&quot;color:#0033b3;&quot;&gt;final &lt;/span&gt;&lt;span style=&quot;color:#000000;&quot;&gt;Thread current &lt;/span&gt;= &lt;span style=&quot;color:#000000;&quot;&gt;Thread&lt;/span&gt;.&lt;span style=&quot;font-style:italic;&quot;&gt;currentThread&lt;/span&gt;();&lt;br&gt;    &lt;span style=&quot;color:#0033b3;&quot;&gt;int &lt;/span&gt;&lt;span style=&quot;color:#000000;&quot;&gt;c &lt;/span&gt;= getState();&lt;br&gt;    &lt;span style=&quot;color:#0033b3;&quot;&gt;if &lt;/span&gt;(&lt;span style=&quot;color:#000000;&quot;&gt;c &lt;/span&gt;== &lt;span style=&quot;color:#1750eb;&quot;&gt;0&lt;/span&gt;) {&lt;br&gt;        &lt;span style=&quot;color:#0033b3;&quot;&gt;if &lt;/span&gt;(compareAndSetState(&lt;span style=&quot;color:#1750eb;&quot;&gt;0&lt;/span&gt;, acquires)) {&lt;br&gt;            setExclusiveOwnerThread(&lt;span style=&quot;color:#000000;&quot;&gt;current&lt;/span&gt;);&lt;br&gt;            &lt;span style=&quot;color:#0033b3;&quot;&gt;return true&lt;/span&gt;;&lt;br&gt;        }&lt;br&gt;    }&lt;br&gt;    &lt;span style=&quot;color:#0033b3;&quot;&gt;else if &lt;/span&gt;(&lt;span style=&quot;color:#000000;&quot;&gt;current &lt;/span&gt;== getExclusiveOwnerThread()) {&lt;br&gt;        &lt;span style=&quot;color:#0033b3;&quot;&gt;int &lt;/span&gt;&lt;span style=&quot;color:#000000;&quot;&gt;nextc &lt;/span&gt;= &lt;span style=&quot;color:#000000;&quot;&gt;c &lt;/span&gt;+ acquires;&lt;br&gt;        &lt;span style=&quot;color:#0033b3;&quot;&gt;if &lt;/span&gt;(&lt;span style=&quot;color:#000000;&quot;&gt;nextc &lt;/span&gt;&amp;lt; &lt;span style=&quot;color:#1750eb;&quot;&gt;0&lt;/span&gt;) &lt;span style=&quot;color:#8c8c8c;font-style:italic;&quot;&gt;// overflow&lt;br&gt;&lt;/span&gt;&lt;span style=&quot;color:#8c8c8c;font-style:italic;&quot;&gt;            &lt;/span&gt;&lt;span style=&quot;color:#0033b3;&quot;&gt;throw new &lt;/span&gt;Error(&lt;span style=&quot;color:#067d17;&quot;&gt;&quot;Maximum lock count exceeded&quot;&lt;/span&gt;);&lt;br&gt;        setState(&lt;span style=&quot;color:#000000;&quot;&gt;nextc&lt;/span&gt;);&lt;br&gt;        &lt;span style=&quot;color:#0033b3;&quot;&gt;return true&lt;/span&gt;;&lt;br&gt;    }&lt;br&gt;    &lt;span style=&quot;color:#0033b3;&quot;&gt;return false&lt;/span&gt;;&lt;br&gt;}&lt;/pre&gt;" style="text;whiteSpace=wrap;html=1;" vertex="1" parent="1">
          <mxGeometry x="585" y="255" width="410" height="330" as="geometry" />
        </mxCell>
        <mxCell id="x8gO3h4IMWBvskIXVoth-23" style="edgeStyle=orthogonalEdgeStyle;rounded=0;orthogonalLoop=1;jettySize=auto;html=1;exitX=0.5;exitY=1;exitDx=0;exitDy=0;entryX=0.552;entryY=0.005;entryDx=0;entryDy=0;entryPerimeter=0;" edge="1" parent="1" source="x8gO3h4IMWBvskIXVoth-17" target="x8gO3h4IMWBvskIXVoth-20">
          <mxGeometry relative="1" as="geometry" />
        </mxCell>
        <mxCell id="x8gO3h4IMWBvskIXVoth-17" value="&lt;pre style=&quot;background-color:#ffffff;color:#080808;font-family:&#39;JetBrains Mono&#39;,monospace;font-size:9.8pt;&quot;&gt;&lt;span style=&quot;color:#0033b3;&quot;&gt;private &lt;/span&gt;&lt;span style=&quot;color:#000000;&quot;&gt;Node &lt;/span&gt;&lt;span style=&quot;color:#00627a;&quot;&gt;addWaiter&lt;/span&gt;(&lt;span style=&quot;color:#000000;&quot;&gt;Node &lt;/span&gt;mode) {&lt;br&gt;    &lt;span style=&quot;color:#000000;&quot;&gt;Node node &lt;/span&gt;= &lt;span style=&quot;color:#0033b3;&quot;&gt;new &lt;/span&gt;Node(&lt;span style=&quot;color:#000000;&quot;&gt;Thread&lt;/span&gt;.&lt;span style=&quot;font-style:italic;&quot;&gt;currentThread&lt;/span&gt;(), mode);&lt;br&gt;    &lt;span style=&quot;color:#8c8c8c;font-style:italic;&quot;&gt;// Try the fast path of enq; backup to full enq on failure&lt;br&gt;&lt;/span&gt;&lt;span style=&quot;color:#8c8c8c;font-style:italic;&quot;&gt;    &lt;/span&gt;&lt;span style=&quot;color:#000000;&quot;&gt;Node pred &lt;/span&gt;= &lt;span style=&quot;color:#871094;&quot;&gt;tail&lt;/span&gt;;&lt;br&gt;    &lt;span style=&quot;color:#0033b3;&quot;&gt;if &lt;/span&gt;(&lt;span style=&quot;color:#000000;&quot;&gt;pred &lt;/span&gt;!= &lt;span style=&quot;color:#0033b3;&quot;&gt;null&lt;/span&gt;) {&lt;br&gt;        &lt;span style=&quot;color:#000000;&quot;&gt;node&lt;/span&gt;.&lt;span style=&quot;color:#871094;&quot;&gt;prev &lt;/span&gt;= &lt;span style=&quot;color:#000000;&quot;&gt;pred&lt;/span&gt;;&lt;br&gt;        &lt;span style=&quot;color:#0033b3;&quot;&gt;if &lt;/span&gt;(compareAndSetTail(&lt;span style=&quot;color:#000000;&quot;&gt;pred&lt;/span&gt;, &lt;span style=&quot;color:#000000;&quot;&gt;node&lt;/span&gt;)) {&lt;br&gt;            &lt;span style=&quot;color:#000000;&quot;&gt;pred&lt;/span&gt;.&lt;span style=&quot;color:#871094;&quot;&gt;next &lt;/span&gt;= &lt;span style=&quot;color:#000000;&quot;&gt;node&lt;/span&gt;;&lt;br&gt;            &lt;span style=&quot;color:#0033b3;&quot;&gt;return &lt;/span&gt;&lt;span style=&quot;color:#000000;&quot;&gt;node&lt;/span&gt;;&lt;br&gt;        }&lt;br&gt;    }&lt;br&gt;    enq(&lt;span style=&quot;color:#000000;&quot;&gt;node&lt;/span&gt;);&lt;br&gt;    &lt;span style=&quot;color:#0033b3;&quot;&gt;return &lt;/span&gt;&lt;span style=&quot;color:#000000;&quot;&gt;node&lt;/span&gt;;&lt;br&gt;}&lt;/pre&gt;" style="text;whiteSpace=wrap;html=1;" vertex="1" parent="1">
          <mxGeometry x="600" y="660" width="430" height="270" as="geometry" />
        </mxCell>
        <mxCell id="x8gO3h4IMWBvskIXVoth-18" value="&lt;pre style=&quot;background-color:#ffffff;color:#080808;font-family:&#39;JetBrains Mono&#39;,monospace;font-size:9.8pt;&quot;&gt;&lt;span style=&quot;color:#0033b3;&quot;&gt;private final boolean &lt;/span&gt;&lt;span style=&quot;color:#00627a;&quot;&gt;parkAndCheckInterrupt&lt;/span&gt;() {&lt;br&gt;    &lt;span style=&quot;color:#000000;&quot;&gt;LockSupport&lt;/span&gt;.&lt;span style=&quot;font-style:italic;&quot;&gt;park&lt;/span&gt;(&lt;span style=&quot;color:#0033b3;&quot;&gt;this&lt;/span&gt;);&lt;br&gt;    &lt;span style=&quot;color:#0033b3;&quot;&gt;return &lt;/span&gt;&lt;span style=&quot;color:#000000;&quot;&gt;Thread&lt;/span&gt;.&lt;span style=&quot;font-style:italic;&quot;&gt;interrupted&lt;/span&gt;();&lt;br&gt;}&lt;/pre&gt;" style="text;whiteSpace=wrap;html=1;" vertex="1" parent="1">
          <mxGeometry x="960" y="1440" width="330" height="110" as="geometry" />
        </mxCell>
        <mxCell id="x8gO3h4IMWBvskIXVoth-19" value="&lt;pre style=&quot;background-color:#ffffff;color:#080808;font-family:&#39;JetBrains Mono&#39;,monospace;font-size:9.8pt;&quot;&gt;&lt;span style=&quot;color:#0033b3;&quot;&gt;private static boolean &lt;/span&gt;&lt;span style=&quot;color:#00627a;&quot;&gt;shouldParkAfterFailedAcquire&lt;/span&gt;(&lt;span style=&quot;color:#000000;&quot;&gt;Node &lt;/span&gt;pred, &lt;span style=&quot;color:#000000;&quot;&gt;Node &lt;/span&gt;node) {&lt;br&gt;    &lt;span style=&quot;color:#0033b3;&quot;&gt;int &lt;/span&gt;&lt;span style=&quot;color:#000000;&quot;&gt;ws &lt;/span&gt;= pred.&lt;span style=&quot;color:#871094;&quot;&gt;waitStatus&lt;/span&gt;;&lt;br&gt;    &lt;span style=&quot;color:#0033b3;&quot;&gt;if &lt;/span&gt;(&lt;span style=&quot;color:#000000;&quot;&gt;ws &lt;/span&gt;== &lt;span style=&quot;color:#000000;&quot;&gt;Node&lt;/span&gt;.&lt;span style=&quot;color:#871094;font-style:italic;&quot;&gt;SIGNAL&lt;/span&gt;)&lt;br&gt;        &lt;span style=&quot;color:#8c8c8c;font-style:italic;&quot;&gt;/*&lt;br&gt;&lt;/span&gt;&lt;span style=&quot;color:#8c8c8c;font-style:italic;&quot;&gt;         * This node has already set status asking a release&lt;br&gt;&lt;/span&gt;&lt;span style=&quot;color:#8c8c8c;font-style:italic;&quot;&gt;         * to signal it, so it can safely park.&lt;br&gt;&lt;/span&gt;&lt;span style=&quot;color:#8c8c8c;font-style:italic;&quot;&gt;         */&lt;br&gt;&lt;/span&gt;&lt;span style=&quot;color:#8c8c8c;font-style:italic;&quot;&gt;        &lt;/span&gt;&lt;span style=&quot;color:#0033b3;&quot;&gt;return true&lt;/span&gt;;&lt;br&gt;    &lt;span style=&quot;color:#0033b3;&quot;&gt;if &lt;/span&gt;(&lt;span style=&quot;color:#000000;&quot;&gt;ws &lt;/span&gt;&amp;gt; &lt;span style=&quot;color:#1750eb;&quot;&gt;0&lt;/span&gt;) {&lt;br&gt;        &lt;span style=&quot;color:#8c8c8c;font-style:italic;&quot;&gt;/*&lt;br&gt;&lt;/span&gt;&lt;span style=&quot;color:#8c8c8c;font-style:italic;&quot;&gt;         * Predecessor was cancelled. Skip over predecessors and&lt;br&gt;&lt;/span&gt;&lt;span style=&quot;color:#8c8c8c;font-style:italic;&quot;&gt;         * indicate retry.&lt;br&gt;&lt;/span&gt;&lt;span style=&quot;color:#8c8c8c;font-style:italic;&quot;&gt;         */&lt;br&gt;&lt;/span&gt;&lt;span style=&quot;color:#8c8c8c;font-style:italic;&quot;&gt;        &lt;/span&gt;&lt;span style=&quot;color:#0033b3;&quot;&gt;do &lt;/span&gt;{&lt;br&gt;            node.&lt;span style=&quot;color:#871094;&quot;&gt;prev &lt;/span&gt;= pred = pred.&lt;span style=&quot;color:#871094;&quot;&gt;prev&lt;/span&gt;;&lt;br&gt;        } &lt;span style=&quot;color:#0033b3;&quot;&gt;while &lt;/span&gt;(pred.&lt;span style=&quot;color:#871094;&quot;&gt;waitStatus &lt;/span&gt;&amp;gt; &lt;span style=&quot;color:#1750eb;&quot;&gt;0&lt;/span&gt;);&lt;br&gt;        pred.&lt;span style=&quot;color:#871094;&quot;&gt;next &lt;/span&gt;= node;&lt;br&gt;    } &lt;span style=&quot;color:#0033b3;&quot;&gt;else &lt;/span&gt;{&lt;br&gt;        &lt;span style=&quot;color:#8c8c8c;font-style:italic;&quot;&gt;/*&lt;br&gt;&lt;/span&gt;&lt;span style=&quot;color:#8c8c8c;font-style:italic;&quot;&gt;         * waitStatus must be 0 or PROPAGATE.  Indicate that we&lt;br&gt;&lt;/span&gt;&lt;span style=&quot;color:#8c8c8c;font-style:italic;&quot;&gt;         * need a signal, but don&#39;t park yet.  Caller will need to&lt;br&gt;&lt;/span&gt;&lt;span style=&quot;color:#8c8c8c;font-style:italic;&quot;&gt;         * retry to make sure it cannot acquire before parking.&lt;br&gt;&lt;/span&gt;&lt;span style=&quot;color:#8c8c8c;font-style:italic;&quot;&gt;         */&lt;br&gt;&lt;/span&gt;&lt;span style=&quot;color:#8c8c8c;font-style:italic;&quot;&gt;        &lt;/span&gt;&lt;span style=&quot;font-style:italic;&quot;&gt;compareAndSetWaitStatus&lt;/span&gt;(pred, &lt;span style=&quot;color:#000000;&quot;&gt;ws&lt;/span&gt;, &lt;span style=&quot;color:#000000;&quot;&gt;Node&lt;/span&gt;.&lt;span style=&quot;color:#871094;font-style:italic;&quot;&gt;SIGNAL&lt;/span&gt;);&lt;br&gt;    }&lt;br&gt;    &lt;span style=&quot;color:#0033b3;&quot;&gt;return false&lt;/span&gt;;&lt;br&gt;}&lt;/pre&gt;" style="text;whiteSpace=wrap;html=1;" vertex="1" parent="1">
          <mxGeometry x="414" y="1440" width="510" height="470" as="geometry" />
        </mxCell>
        <mxCell id="x8gO3h4IMWBvskIXVoth-25" style="edgeStyle=orthogonalEdgeStyle;rounded=0;orthogonalLoop=1;jettySize=auto;html=1;exitX=0.5;exitY=1;exitDx=0;exitDy=0;entryX=0.388;entryY=-0.02;entryDx=0;entryDy=0;entryPerimeter=0;" edge="1" parent="1" source="x8gO3h4IMWBvskIXVoth-20" target="x8gO3h4IMWBvskIXVoth-18">
          <mxGeometry relative="1" as="geometry" />
        </mxCell>
        <mxCell id="x8gO3h4IMWBvskIXVoth-26" style="edgeStyle=orthogonalEdgeStyle;rounded=0;orthogonalLoop=1;jettySize=auto;html=1;exitX=0.5;exitY=1;exitDx=0;exitDy=0;entryX=0.5;entryY=0;entryDx=0;entryDy=0;" edge="1" parent="1" source="x8gO3h4IMWBvskIXVoth-20" target="x8gO3h4IMWBvskIXVoth-19">
          <mxGeometry relative="1" as="geometry" />
        </mxCell>
        <mxCell id="x8gO3h4IMWBvskIXVoth-20" value="&lt;pre style=&quot;background-color:#ffffff;color:#080808;font-family:&#39;JetBrains Mono&#39;,monospace;font-size:9.8pt;&quot;&gt;&lt;span style=&quot;color:#0033b3;&quot;&gt;final boolean &lt;/span&gt;&lt;span style=&quot;color:#00627a;&quot;&gt;acquireQueued&lt;/span&gt;(&lt;span style=&quot;color:#0033b3;&quot;&gt;final &lt;/span&gt;&lt;span style=&quot;color:#000000;&quot;&gt;Node &lt;/span&gt;node, &lt;span style=&quot;color:#0033b3;&quot;&gt;int &lt;/span&gt;arg) {&lt;br&gt;    &lt;span style=&quot;color:#0033b3;&quot;&gt;boolean &lt;/span&gt;failed = &lt;span style=&quot;color:#0033b3;&quot;&gt;true&lt;/span&gt;;&lt;br&gt;    &lt;span style=&quot;color:#0033b3;&quot;&gt;try &lt;/span&gt;{&lt;br&gt;        &lt;span style=&quot;color:#0033b3;&quot;&gt;boolean &lt;/span&gt;interrupted = &lt;span style=&quot;color:#0033b3;&quot;&gt;false&lt;/span&gt;;&lt;br&gt;        &lt;span style=&quot;color:#0033b3;&quot;&gt;for &lt;/span&gt;(;;) {&lt;br&gt;            &lt;span style=&quot;color:#0033b3;&quot;&gt;final &lt;/span&gt;&lt;span style=&quot;color:#000000;&quot;&gt;Node p &lt;/span&gt;= node.predecessor();&lt;br&gt;            &lt;span style=&quot;color:#0033b3;&quot;&gt;if &lt;/span&gt;(&lt;span style=&quot;color:#000000;&quot;&gt;p &lt;/span&gt;== &lt;span style=&quot;color:#871094;&quot;&gt;head &lt;/span&gt;&amp;amp;&amp;amp; tryAcquire(arg)) {&lt;br&gt;                setHead(node);&lt;br&gt;                &lt;span style=&quot;color:#000000;&quot;&gt;p&lt;/span&gt;.&lt;span style=&quot;color:#871094;&quot;&gt;next &lt;/span&gt;= &lt;span style=&quot;color:#0033b3;&quot;&gt;null&lt;/span&gt;; &lt;span style=&quot;color:#8c8c8c;font-style:italic;&quot;&gt;// help GC&lt;br&gt;&lt;/span&gt;&lt;span style=&quot;color:#8c8c8c;font-style:italic;&quot;&gt;                &lt;/span&gt;failed = &lt;span style=&quot;color:#0033b3;&quot;&gt;false&lt;/span&gt;;&lt;br&gt;                &lt;span style=&quot;color:#0033b3;&quot;&gt;return &lt;/span&gt;interrupted;&lt;br&gt;            }&lt;br&gt;            &lt;span style=&quot;color:#0033b3;&quot;&gt;if &lt;/span&gt;(&lt;span style=&quot;font-style:italic;&quot;&gt;shouldParkAfterFailedAcquire&lt;/span&gt;(&lt;span style=&quot;color:#000000;&quot;&gt;p&lt;/span&gt;, node) &amp;amp;&amp;amp;&lt;br&gt;                parkAndCheckInterrupt())&lt;br&gt;                interrupted = &lt;span style=&quot;color:#0033b3;&quot;&gt;true&lt;/span&gt;;&lt;br&gt;        }&lt;br&gt;    } &lt;span style=&quot;color:#0033b3;&quot;&gt;finally &lt;/span&gt;{&lt;br&gt;        &lt;span style=&quot;color:#0033b3;&quot;&gt;if &lt;/span&gt;(failed)&lt;br&gt;            cancelAcquire(node);&lt;br&gt;    }&lt;br&gt;}&lt;/pre&gt;" style="text;whiteSpace=wrap;html=1;" vertex="1" parent="1">
          <mxGeometry x="600" y="1000" width="390" height="380" as="geometry" />
        </mxCell>
        <mxCell id="x8gO3h4IMWBvskIXVoth-31" style="edgeStyle=orthogonalEdgeStyle;rounded=0;orthogonalLoop=1;jettySize=auto;html=1;exitX=0.5;exitY=1;exitDx=0;exitDy=0;entryX=0.5;entryY=0;entryDx=0;entryDy=0;entryPerimeter=0;" edge="1" parent="1" source="x8gO3h4IMWBvskIXVoth-28" target="x8gO3h4IMWBvskIXVoth-10">
          <mxGeometry relative="1" as="geometry">
            <Array as="points">
              <mxPoint x="-305" y="1210" />
              <mxPoint x="-465" y="1210" />
            </Array>
          </mxGeometry>
        </mxCell>
        <mxCell id="x8gO3h4IMWBvskIXVoth-32" value="是" style="edgeLabel;html=1;align=center;verticalAlign=middle;resizable=0;points=[];" vertex="1" connectable="0" parent="x8gO3h4IMWBvskIXVoth-31">
          <mxGeometry x="-0.4343" y="1" relative="1" as="geometry">
            <mxPoint as="offset" />
          </mxGeometry>
        </mxCell>
        <mxCell id="x8gO3h4IMWBvskIXVoth-35" value="" style="edgeStyle=orthogonalEdgeStyle;rounded=0;orthogonalLoop=1;jettySize=auto;html=1;" edge="1" parent="1" source="x8gO3h4IMWBvskIXVoth-28" target="x8gO3h4IMWBvskIXVoth-34">
          <mxGeometry relative="1" as="geometry" />
        </mxCell>
        <mxCell id="x8gO3h4IMWBvskIXVoth-36" value="否" style="edgeLabel;html=1;align=center;verticalAlign=middle;resizable=0;points=[];" vertex="1" connectable="0" parent="x8gO3h4IMWBvskIXVoth-35">
          <mxGeometry x="-0.19" y="-2" relative="1" as="geometry">
            <mxPoint as="offset" />
          </mxGeometry>
        </mxCell>
        <mxCell id="x8gO3h4IMWBvskIXVoth-28" value="获取或重入成功？" style="rhombus;whiteSpace=wrap;html=1;strokeWidth=2;" vertex="1" parent="1">
          <mxGeometry x="-365" y="660" width="120" height="60" as="geometry" />
        </mxCell>
        <mxCell id="x8gO3h4IMWBvskIXVoth-38" value="" style="edgeStyle=orthogonalEdgeStyle;rounded=0;orthogonalLoop=1;jettySize=auto;html=1;" edge="1" parent="1" source="x8gO3h4IMWBvskIXVoth-34" target="x8gO3h4IMWBvskIXVoth-37">
          <mxGeometry relative="1" as="geometry" />
        </mxCell>
        <mxCell id="x8gO3h4IMWBvskIXVoth-34" value="将当前线程放入AQS队列" style="whiteSpace=wrap;html=1;strokeWidth=2;" vertex="1" parent="1">
          <mxGeometry x="-185" y="660" width="120" height="60" as="geometry" />
        </mxCell>
        <mxCell id="x8gO3h4IMWBvskIXVoth-40" value="" style="edgeStyle=orthogonalEdgeStyle;rounded=0;orthogonalLoop=1;jettySize=auto;html=1;" edge="1" parent="1" source="x8gO3h4IMWBvskIXVoth-37" target="x8gO3h4IMWBvskIXVoth-39">
          <mxGeometry relative="1" as="geometry" />
        </mxCell>
        <mxCell id="x8gO3h4IMWBvskIXVoth-41" value="是" style="edgeLabel;html=1;align=center;verticalAlign=middle;resizable=0;points=[];" vertex="1" connectable="0" parent="x8gO3h4IMWBvskIXVoth-40">
          <mxGeometry x="-0.25" y="2" relative="1" as="geometry">
            <mxPoint as="offset" />
          </mxGeometry>
        </mxCell>
        <mxCell id="x8gO3h4IMWBvskIXVoth-50" value="" style="edgeStyle=orthogonalEdgeStyle;rounded=0;orthogonalLoop=1;jettySize=auto;html=1;" edge="1" parent="1" source="x8gO3h4IMWBvskIXVoth-37" target="x8gO3h4IMWBvskIXVoth-49">
          <mxGeometry relative="1" as="geometry" />
        </mxCell>
        <mxCell id="x8gO3h4IMWBvskIXVoth-51" value="否" style="edgeLabel;html=1;align=center;verticalAlign=middle;resizable=0;points=[];" vertex="1" connectable="0" parent="x8gO3h4IMWBvskIXVoth-50">
          <mxGeometry x="-0.06" y="-4" relative="1" as="geometry">
            <mxPoint as="offset" />
          </mxGeometry>
        </mxCell>
        <mxCell id="x8gO3h4IMWBvskIXVoth-37" value="当前线程的前驱节点时head节点？" style="rhombus;whiteSpace=wrap;html=1;strokeWidth=2;" vertex="1" parent="1">
          <mxGeometry x="-185" y="790" width="120" height="60" as="geometry" />
        </mxCell>
        <mxCell id="x8gO3h4IMWBvskIXVoth-43" style="edgeStyle=orthogonalEdgeStyle;rounded=0;orthogonalLoop=1;jettySize=auto;html=1;exitX=0.5;exitY=1;exitDx=0;exitDy=0;entryX=0.5;entryY=0;entryDx=0;entryDy=0;" edge="1" parent="1" source="x8gO3h4IMWBvskIXVoth-39" target="x8gO3h4IMWBvskIXVoth-42">
          <mxGeometry relative="1" as="geometry" />
        </mxCell>
        <mxCell id="x8gO3h4IMWBvskIXVoth-39" value="尝试获取锁" style="whiteSpace=wrap;html=1;strokeWidth=2;" vertex="1" parent="1">
          <mxGeometry x="-185" y="930" width="120" height="60" as="geometry" />
        </mxCell>
        <mxCell id="x8gO3h4IMWBvskIXVoth-45" value="" style="edgeStyle=orthogonalEdgeStyle;rounded=0;orthogonalLoop=1;jettySize=auto;html=1;" edge="1" parent="1" source="x8gO3h4IMWBvskIXVoth-42" target="x8gO3h4IMWBvskIXVoth-44">
          <mxGeometry relative="1" as="geometry" />
        </mxCell>
        <mxCell id="x8gO3h4IMWBvskIXVoth-46" value="是" style="edgeLabel;html=1;align=center;verticalAlign=middle;resizable=0;points=[];" vertex="1" connectable="0" parent="x8gO3h4IMWBvskIXVoth-45">
          <mxGeometry x="0.075" y="-2" relative="1" as="geometry">
            <mxPoint as="offset" />
          </mxGeometry>
        </mxCell>
        <mxCell id="x8gO3h4IMWBvskIXVoth-52" style="edgeStyle=orthogonalEdgeStyle;rounded=0;orthogonalLoop=1;jettySize=auto;html=1;exitX=1;exitY=0.5;exitDx=0;exitDy=0;entryX=0.5;entryY=0;entryDx=0;entryDy=0;" edge="1" parent="1" source="x8gO3h4IMWBvskIXVoth-42" target="x8gO3h4IMWBvskIXVoth-49">
          <mxGeometry relative="1" as="geometry" />
        </mxCell>
        <mxCell id="x8gO3h4IMWBvskIXVoth-53" value="否" style="edgeLabel;html=1;align=center;verticalAlign=middle;resizable=0;points=[];" vertex="1" connectable="0" parent="x8gO3h4IMWBvskIXVoth-52">
          <mxGeometry x="-0.5046" y="-3" relative="1" as="geometry">
            <mxPoint as="offset" />
          </mxGeometry>
        </mxCell>
        <mxCell id="x8gO3h4IMWBvskIXVoth-42" value="获取或重入成功？" style="rhombus;whiteSpace=wrap;html=1;strokeWidth=2;" vertex="1" parent="1">
          <mxGeometry x="-185" y="1040" width="120" height="60" as="geometry" />
        </mxCell>
        <mxCell id="x8gO3h4IMWBvskIXVoth-48" style="edgeStyle=orthogonalEdgeStyle;rounded=0;orthogonalLoop=1;jettySize=auto;html=1;exitX=0;exitY=0.5;exitDx=0;exitDy=0;" edge="1" parent="1" source="x8gO3h4IMWBvskIXVoth-44">
          <mxGeometry relative="1" as="geometry">
            <mxPoint x="-465" y="1280" as="targetPoint" />
          </mxGeometry>
        </mxCell>
        <mxCell id="x8gO3h4IMWBvskIXVoth-44" value="当前节点设置为head节点" style="whiteSpace=wrap;html=1;strokeWidth=2;" vertex="1" parent="1">
          <mxGeometry x="-185" y="1180" width="120" height="60" as="geometry" />
        </mxCell>
        <mxCell id="x8gO3h4IMWBvskIXVoth-55" value="" style="edgeStyle=orthogonalEdgeStyle;rounded=0;orthogonalLoop=1;jettySize=auto;html=1;" edge="1" parent="1" source="x8gO3h4IMWBvskIXVoth-49" target="x8gO3h4IMWBvskIXVoth-54">
          <mxGeometry relative="1" as="geometry" />
        </mxCell>
        <mxCell id="x8gO3h4IMWBvskIXVoth-49" value="设置当前节点的前驱节点waitStatus=-1，表示前驱节点有义务通知后面的节点。" style="whiteSpace=wrap;html=1;strokeWidth=2;" vertex="1" parent="1">
          <mxGeometry x="90" y="1180" width="120" height="60" as="geometry" />
        </mxCell>
        <mxCell id="x8gO3h4IMWBvskIXVoth-54" value="使用park()阻塞线程等待唤醒" style="whiteSpace=wrap;html=1;strokeWidth=2;" vertex="1" parent="1">
          <mxGeometry x="90" y="1320" width="120" height="60" as="geometry" />
        </mxCell>
      </root>
    </mxGraphModel>
  </diagram>
</mxfile>
